<svg width="109" height="29" viewBox="0 0 109 29" fill="none" xmlns="http://www.w3.org/2000/svg">
<path d="M25.9176 23V5.54545H28.5511V20.733H36.4602V23H25.9176ZM44.902 23.2642C43.6122 23.2642 42.5014 22.9886 41.5696 22.4375C40.6435 21.8807 39.9276 21.0994 39.4219 20.0938C38.9219 19.0824 38.6719 17.8977 38.6719 16.5398C38.6719 15.1989 38.9219 14.017 39.4219 12.9943C39.9276 11.9716 40.6321 11.1733 41.5355 10.5994C42.4446 10.0256 43.5071 9.73864 44.723 9.73864C45.4616 9.73864 46.1776 9.8608 46.8707 10.1051C47.5639 10.3494 48.1861 10.733 48.7372 11.2557C49.2884 11.7784 49.723 12.4574 50.0412 13.2926C50.3594 14.1222 50.5185 15.1307 50.5185 16.3182V17.2216H40.1122V15.3125H48.0213C48.0213 14.642 47.8849 14.0483 47.6122 13.5312C47.3395 13.0085 46.956 12.5966 46.4616 12.2955C45.973 11.9943 45.3991 11.8438 44.7401 11.8438C44.0241 11.8438 43.3991 12.0199 42.8651 12.3722C42.3366 12.7187 41.9276 13.1733 41.6378 13.7358C41.3537 14.2926 41.2116 14.8977 41.2116 15.5511V17.0426C41.2116 17.9176 41.3651 18.6619 41.6719 19.2756C41.9844 19.8892 42.419 20.358 42.9759 20.6818C43.5327 21 44.1832 21.1591 44.9276 21.1591C45.4105 21.1591 45.8509 21.0909 46.2486 20.9545C46.6463 20.8125 46.9901 20.6023 47.2798 20.3239C47.5696 20.0455 47.7912 19.7017 47.9446 19.2926L50.3565 19.7273C50.1634 20.4375 49.8168 21.0597 49.3168 21.5938C48.8224 22.1222 48.2003 22.5341 47.4503 22.8295C46.706 23.1193 45.8565 23.2642 44.902 23.2642ZM53.5504 23V5.54545H59.9425C61.1811 5.54545 62.2067 5.75 63.0192 6.15909C63.8317 6.5625 64.4396 7.1108 64.843 7.80398C65.2464 8.49148 65.4482 9.26705 65.4482 10.1307C65.4482 10.858 65.3146 11.4716 65.0476 11.9716C64.7805 12.4659 64.4226 12.8636 63.9737 13.1648C63.5305 13.4602 63.0419 13.6761 62.5078 13.8125V13.983C63.0874 14.0114 63.6527 14.1989 64.2038 14.5455C64.7607 14.8864 65.2209 15.3722 65.5845 16.0028C65.9482 16.6335 66.13 17.4006 66.13 18.304C66.13 19.196 65.9197 19.9972 65.4993 20.7074C65.0845 21.4119 64.4425 21.9716 63.5732 22.3864C62.7038 22.7955 61.593 23 60.2408 23H53.5504ZM56.1839 20.7415H59.9851C61.2464 20.7415 62.1499 20.4972 62.6953 20.0085C63.2408 19.5199 63.5135 18.9091 63.5135 18.1761C63.5135 17.625 63.3743 17.1193 63.0959 16.6591C62.8175 16.1989 62.4197 15.8324 61.9027 15.5597C61.3913 15.2869 60.7834 15.1506 60.0788 15.1506H56.1839V20.7415ZM56.1839 13.0966H59.7124C60.3033 13.0966 60.8345 12.983 61.3061 12.7557C61.7834 12.5284 62.1612 12.2102 62.4396 11.8011C62.7237 11.3864 62.8658 10.8977 62.8658 10.3352C62.8658 9.61364 62.6129 9.00852 62.1072 8.51989C61.6016 8.03125 60.826 7.78693 59.7805 7.78693H56.1839V13.0966ZM72.8587 23.2898C72.0291 23.2898 71.2791 23.1364 70.6087 22.8295C69.9382 22.517 69.407 22.0653 69.0149 21.4744C68.6286 20.8835 68.4354 20.1591 68.4354 19.3011C68.4354 18.5625 68.5774 17.9545 68.8615 17.4773C69.1456 17 69.5291 16.6222 70.0121 16.3438C70.495 16.0653 71.0348 15.8551 71.6314 15.7131C72.228 15.571 72.8359 15.4631 73.4553 15.3892C74.2393 15.2983 74.8757 15.2244 75.3643 15.1676C75.853 15.1051 76.2081 15.0057 76.4297 14.8693C76.6513 14.733 76.7621 14.5114 76.7621 14.2045V14.1449C76.7621 13.4006 76.5518 12.8239 76.1314 12.4148C75.7166 12.0057 75.0973 11.8011 74.2734 11.8011C73.4155 11.8011 72.7393 11.9915 72.245 12.3722C71.7564 12.7472 71.4183 13.1648 71.2308 13.625L68.8359 13.0795C69.12 12.2841 69.5348 11.642 70.0803 11.1534C70.6314 10.6591 71.2649 10.3011 71.9808 10.0795C72.6967 9.85227 73.4496 9.73864 74.2393 9.73864C74.7621 9.73864 75.3161 9.80114 75.9013 9.92614C76.4922 10.0455 77.0433 10.267 77.5547 10.5909C78.0717 10.9148 78.495 11.3778 78.8246 11.9801C79.1541 12.5767 79.3189 13.3523 79.3189 14.3068V23H76.8303V21.2102H76.728C76.5632 21.5398 76.3161 21.8636 75.9865 22.1818C75.657 22.5 75.2337 22.7642 74.7166 22.9744C74.1996 23.1847 73.5803 23.2898 72.8587 23.2898ZM73.4126 21.2443C74.1172 21.2443 74.7195 21.1051 75.2195 20.8267C75.7251 20.5483 76.1087 20.1847 76.37 19.7358C76.6371 19.2812 76.7706 18.7955 76.7706 18.2784V16.5909C76.6797 16.6818 76.5036 16.767 76.2422 16.8466C75.9865 16.9205 75.6939 16.9858 75.3643 17.0426C75.0348 17.0937 74.7138 17.142 74.4013 17.1875C74.0888 17.2273 73.8274 17.2614 73.6172 17.2898C73.1229 17.3523 72.6712 17.4574 72.2621 17.6051C71.8587 17.7528 71.5348 17.9659 71.2905 18.2443C71.0518 18.517 70.9325 18.8807 70.9325 19.3352C70.9325 19.9659 71.1655 20.4432 71.6314 20.767C72.0973 21.0852 72.6911 21.2443 73.4126 21.2443ZM92.5227 13.1051L90.2131 13.5142C90.1165 13.2187 89.9631 12.9375 89.7528 12.6705C89.5483 12.4034 89.2699 12.1847 88.9176 12.0142C88.5653 11.8437 88.125 11.7585 87.5966 11.7585C86.875 11.7585 86.2727 11.9205 85.7898 12.2443C85.3068 12.5625 85.0653 12.9744 85.0653 13.4801C85.0653 13.9176 85.2273 14.2699 85.5511 14.5369C85.875 14.804 86.3977 15.0227 87.1193 15.1932L89.1989 15.6705C90.4034 15.9489 91.3011 16.3778 91.892 16.9574C92.483 17.5369 92.7784 18.2898 92.7784 19.2159C92.7784 20 92.5511 20.6989 92.0966 21.3125C91.6477 21.9205 91.0199 22.3977 90.2131 22.7443C89.4119 23.0909 88.483 23.2642 87.4261 23.2642C85.9602 23.2642 84.7642 22.9517 83.8381 22.3267C82.9119 21.696 82.3438 20.8011 82.1335 19.642L84.5966 19.267C84.75 19.9091 85.0653 20.3949 85.5426 20.7244C86.0199 21.0483 86.642 21.2102 87.4091 21.2102C88.2443 21.2102 88.9119 21.0369 89.4119 20.6903C89.9119 20.3381 90.1619 19.9091 90.1619 19.4034C90.1619 18.9943 90.0085 18.6506 89.7017 18.3722C89.4006 18.0937 88.9375 17.8835 88.3125 17.7415L86.0966 17.2557C84.875 16.9773 83.9716 16.5341 83.3864 15.9261C82.8068 15.3182 82.517 14.5483 82.517 13.6165C82.517 12.8437 82.733 12.1676 83.1648 11.5881C83.5966 11.0085 84.1932 10.5568 84.9545 10.233C85.7159 9.90341 86.5881 9.73864 87.571 9.73864C88.9858 9.73864 90.0994 10.0455 90.9119 10.6591C91.7244 11.267 92.2614 12.0824 92.5227 13.1051ZM98.1286 15.2273V23H95.5803V5.54545H98.0945V12.0398H98.2564C98.5632 11.3352 99.032 10.7756 99.6626 10.3608C100.293 9.94602 101.117 9.73864 102.134 9.73864C103.032 9.73864 103.816 9.9233 104.487 10.2926C105.163 10.6619 105.685 11.2131 106.055 11.946C106.43 12.6733 106.617 13.5824 106.617 14.6733V23H104.069V14.9801C104.069 14.0199 103.822 13.2756 103.327 12.7472C102.833 12.2131 102.146 11.946 101.265 11.946C100.663 11.946 100.123 12.0739 99.6456 12.3295C99.174 12.5852 98.8018 12.9602 98.5291 13.4545C98.2621 13.9432 98.1286 14.5341 98.1286 15.2273Z" fill="white"/>
<rect y="5" width="19" height="19" rx="2.11111" fill="white"/>
<path d="M6.79256 21L8.93366 7.94949H10.9728L8.8317 21H6.79256ZM0.949147 17.7629L1.28688 15.7237H11.4826L11.1449 17.7629H0.949147ZM2.20449 21L4.34559 7.94949H6.38473L4.24364 21H2.20449ZM1.69471 13.2258L2.03881 11.1866H12.2345L11.8904 13.2258H1.69471ZM16.7445 7.94949L16.496 17.0874H14.1637L13.9088 7.94949H16.7445ZM15.3299 21.1657C14.9093 21.1657 14.5482 21.017 14.2466 20.7196C13.945 20.418 13.7963 20.0569 13.8005 19.6363C13.7963 19.22 13.945 18.8631 14.2466 18.5658C14.5482 18.2684 14.9093 18.1197 15.3299 18.1197C15.7335 18.1197 16.0882 18.2684 16.3941 18.5658C16.6999 18.8631 16.855 19.22 16.8592 19.6363C16.855 19.9167 16.7806 20.1737 16.6362 20.4074C16.496 20.6368 16.3112 20.8216 16.0818 20.9618C15.8524 21.0977 15.6018 21.1657 15.3299 21.1657Z" fill="#111118"/>
</svg>
