<svg width="19" height="19" viewBox="0 0 19 19" fill="none" xmlns="http://www.w3.org/2000/svg">
<rect width="19" height="19" rx="2.11111" fill="white"/>
<path d="M6.79256 16L8.93366 2.94949H10.9728L8.8317 16H6.79256ZM0.949147 12.7629L1.28688 10.7237H11.4826L11.1449 12.7629H0.949147ZM2.20449 16L4.34559 2.94949H6.38473L4.24364 16H2.20449ZM1.69471 8.22577L2.03881 6.18663H12.2345L11.8904 8.22577H1.69471ZM16.7445 2.94949L16.496 12.0874H14.1637L13.9088 2.94949H16.7445ZM15.3299 16.1657C14.9093 16.1657 14.5482 16.017 14.2466 15.7196C13.945 15.418 13.7963 15.0569 13.8005 14.6363C13.7963 14.22 13.945 13.8631 14.2466 13.5658C14.5482 13.2684 14.9093 13.1197 15.3299 13.1197C15.7335 13.1197 16.0882 13.2684 16.3941 13.5658C16.6999 13.8631 16.855 14.22 16.8592 14.6363C16.855 14.9167 16.7806 15.1737 16.6362 15.4074C16.496 15.6368 16.3112 15.8216 16.0818 15.9618C15.8524 16.0977 15.6018 16.1657 15.3299 16.1657Z" fill="#111118"/>
</svg>
